<svg width="235" height="90" viewBox="0 0 235 90" fill="none" xmlns="http://www.w3.org/2000/svg">
<path d="M117.398 38.1047L120.924 43.9032V44.4249H117.351L114.137 38.6739H111.349V44.4249H108V27H114.675C116.388 27 117.735 27.587 118.715 28.7549C119.696 29.9229 120.186 31.334 120.186 32.9763C120.186 34.0909 119.938 35.0988 119.448 36.0119C118.957 36.9249 118.272 37.6245 117.392 38.1047H117.398ZM111.302 35.6146H114.651C115.336 35.6146 115.892 35.3538 116.323 34.832C116.754 34.3103 116.961 33.664 116.949 32.9051C116.949 32.1581 116.742 31.5296 116.323 31.0257C115.903 30.5217 115.348 30.2668 114.651 30.2668H111.302V35.6206V35.6146Z" fill="#323232"/>
<path d="M135.158 41.6858H128.661L127.456 44.5731H123.977V44.0751L131.165 27H132.707L139.848 44.0751V44.5731H136.387L135.158 41.6858ZM131.921 32.7984L129.753 38.5494H134.083L131.915 32.7984H131.921Z" fill="#323232"/>
<path d="M142.945 35.9119C142.945 33.1431 143.731 30.9554 145.314 29.3546C146.891 27.7538 148.764 26.9712 150.937 27.0008C152.662 27.0008 154.21 27.5285 155.58 28.5838C156.95 29.6392 157.807 31.1747 158.15 33.2024H154.913C154.245 31.3111 152.916 30.3625 150.937 30.3625C149.555 30.3625 148.439 30.8724 147.588 31.8921C146.738 32.9119 146.318 34.2518 146.318 35.9119C146.318 37.4415 146.743 38.734 147.588 39.7953C148.439 40.8565 149.543 41.3901 150.914 41.3901C151.912 41.3901 152.774 41.1233 153.501 40.5957C154.227 40.0621 154.724 39.2854 154.972 38.2538H158.185C157.872 40.4119 157.033 42.0364 155.663 43.1332C154.292 44.2301 152.715 44.7755 150.931 44.7755C149.892 44.7755 148.894 44.5799 147.943 44.1886C146.992 43.7973 146.141 43.2399 145.397 42.5226C144.652 41.8052 144.056 40.8684 143.613 39.7241C143.17 38.5799 142.945 37.3111 142.945 35.9178V35.9119Z" fill="#323232"/>
<path d="M161.918 35.9119C161.918 33.1431 162.704 30.9554 164.287 29.3546C165.864 27.7538 167.736 26.9712 169.91 27.0008C171.635 27.0008 173.182 27.5285 174.553 28.5838C175.923 29.6392 176.78 31.1747 177.122 33.2024H173.885C173.218 31.3111 171.889 30.3625 169.91 30.3625C168.528 30.3625 167.411 30.8724 166.561 31.8921C165.71 32.9119 165.291 34.2518 165.291 35.9119C165.291 37.4415 165.716 38.734 166.561 39.7953C167.411 40.8565 168.516 41.3901 169.886 41.3901C170.885 41.3901 171.747 41.1233 172.474 40.5957C173.2 40.0621 173.696 39.2854 173.944 38.2538H177.158C176.845 40.4119 176.006 42.0364 174.635 43.1332C173.265 44.2301 171.688 44.7755 169.904 44.7755C168.864 44.7755 167.866 44.5799 166.915 44.1886C165.964 43.7973 165.114 43.2399 164.369 42.5226C163.625 41.8052 163.028 40.8684 162.585 39.7241C162.142 38.5799 161.918 37.3111 161.918 35.9178V35.9119Z" fill="#323232"/>
<path d="M196.851 35.9881C196.851 38.6443 196.107 40.8083 194.618 42.4862C193.13 44.164 191.204 45 188.835 45C186.62 45 184.742 44.1996 183.2 42.5988C181.659 40.998 180.891 38.7925 180.891 35.9881C180.891 34.1146 181.275 32.4783 182.042 31.085C182.81 29.6917 183.791 28.6601 184.99 27.996C186.189 27.332 187.495 27 188.906 27C189.946 27 190.938 27.2016 191.877 27.5988C192.817 27.996 193.661 28.5593 194.411 29.2945C195.162 30.0237 195.758 30.9723 196.195 32.1344C196.632 33.2964 196.851 34.583 196.851 35.9941V35.9881ZM184.258 35.9881C184.258 37.7964 184.695 39.1838 185.575 40.1443C186.455 41.1047 187.554 41.5909 188.877 41.5909C190.2 41.5909 191.287 41.1107 192.179 40.1443C193.071 39.1838 193.52 37.7964 193.52 35.9881C193.52 34.1798 193.071 32.8636 192.179 31.8913C191.287 30.919 190.194 30.4328 188.894 30.4328C187.595 30.4328 186.484 30.919 185.593 31.8913C184.701 32.8636 184.252 34.2273 184.252 35.9881H184.258Z" fill="#323232"/>
<path d="M216.82 35.9881C216.82 38.6443 216.075 40.8083 214.587 42.4862C213.098 44.164 211.173 45 208.804 45C206.589 45 204.711 44.1996 203.169 42.5988C201.627 40.998 200.859 38.7925 200.859 35.9881C200.859 34.1146 201.243 32.4783 202.011 31.085C202.779 29.6917 203.76 28.6601 204.959 27.996C206.158 27.332 207.463 27 208.875 27C209.915 27 210.907 27.2016 211.846 27.5988C212.785 27.996 213.63 28.5593 214.38 29.2945C215.13 30.0237 215.727 30.9723 216.164 32.1344C216.601 33.2964 216.82 34.583 216.82 35.9941V35.9881ZM204.232 35.9881C204.232 37.7964 204.669 39.1838 205.549 40.1443C206.43 41.1047 207.528 41.5909 208.851 41.5909C210.175 41.5909 211.261 41.1107 212.153 40.1443C213.045 39.1838 213.494 37.7964 213.494 35.9881C213.494 34.1798 213.045 32.8636 212.153 31.8913C211.261 30.919 210.169 30.4328 208.869 30.4328C207.57 30.4328 206.459 30.919 205.567 31.8913C204.675 32.8636 204.226 34.2273 204.226 35.9881H204.232Z" fill="#323232"/>
<path d="M232.99 44.5553L224.154 34.5474V44.502H220.828V27H221.88L230.651 36.9545V27.0711H234V44.5494H232.996L232.99 44.5553Z" fill="#323232"/>
<path d="M108 63.0029C108 61.1462 108.385 59.5223 109.154 58.1253C109.923 56.7283 110.899 55.6955 112.094 55.0149C113.283 54.3403 114.584 54 115.986 54C117.672 54 119.169 54.4776 120.488 55.4388C121.808 56.4 122.677 57.8388 123.091 59.7612H119.808C119.08 58.1731 117.803 57.3791 115.986 57.3791C114.573 57.3791 113.454 57.9104 112.632 58.9731C111.81 60.0358 111.402 61.3731 111.402 62.9969C111.402 64.6208 111.822 66.0178 112.656 67.0447C113.49 68.0715 114.602 68.585 115.986 68.585C117.146 68.585 118.093 68.3402 118.814 67.8447C119.536 67.3492 120.057 66.4775 120.37 65.2238H116.099V62.0656H123.435C123.541 64.0357 123.381 65.6775 122.967 66.979C122.399 68.6685 121.494 69.9223 120.252 70.7521C119.009 71.582 117.59 71.9939 115.992 71.9939C113.803 71.9939 111.922 71.1879 110.36 69.576C108.799 67.9641 108.012 65.7671 108.012 62.9969L108 63.0029Z" fill="#323232"/>
<path d="M137.027 68.8714H130.519L129.313 71.7789H125.828V71.2774L133.028 54.0835H134.572L141.724 71.2774V71.7789H138.257L137.027 68.8714ZM133.785 59.9223L131.614 65.7133H135.95L133.779 59.9223H133.785Z" fill="#323232"/>
<path d="M157.286 71.8269L148.436 61.7494V71.7732H145.105V54.1494H146.158L154.944 64.1732V54.2211H158.298V71.8209H157.292L157.286 71.8269Z" fill="#323232"/>
<path d="M162.727 63.0029C162.727 61.1462 163.111 59.5223 163.88 58.1253C164.649 56.7283 165.625 55.6955 166.82 55.0149C168.009 54.3403 169.311 54 170.713 54C172.399 54 173.896 54.4776 175.215 55.4388C176.534 56.4 177.404 57.8388 177.818 59.7612H174.535C173.807 58.1731 172.529 57.3791 170.713 57.3791C169.299 57.3791 168.181 57.9104 167.359 58.9731C166.536 60.0358 166.128 61.3731 166.128 62.9969C166.128 64.6208 166.548 66.0178 167.382 67.0447C168.217 68.0715 169.329 68.585 170.713 68.585C171.873 68.585 172.819 68.3402 173.541 67.8447C174.263 67.3492 174.783 66.4775 175.097 65.2238H170.825V62.0656H178.161C178.268 64.0357 178.108 65.6775 177.694 66.979C177.126 68.6685 176.221 69.9223 174.978 70.7521C173.736 71.582 172.316 71.9939 170.719 71.9939C168.53 71.9939 166.649 71.1879 165.087 69.576C163.525 67.9641 162.738 65.7671 162.738 62.9969L162.727 63.0029Z" fill="#323232"/>
<path d="M64.5217 58.0705L57.5584 65.0338L45.0086 60.5274L45.0002 60.5295L44.9925 60.5274L32.4434 65.0338L25.4801 58.0705L44.9925 50.7757L45.0009 50.7785L45.0093 50.7757L64.5217 58.0705Z" fill="white"/>
<path d="M83.6776 38.9139L78.2561 44.3347L61.3183 34.1513L54.1906 37.7224L45.0281 42.1076L45.0009 42.0937L44.9737 42.1076L35.8112 37.7224L28.6835 34.1513L11.7457 44.3347L6.32422 38.9139L25.3032 19.8966L25.3255 27.415L44.9675 22.1453L45.0009 22.1537L45.0343 22.1453L64.6763 27.415L64.6986 19.8966L83.6776 38.9139Z" fill="white"/>
<path fill-rule="evenodd" clip-rule="evenodd" d="M90 38.92L45 83.9186L0 38.92L29.838 9.08136L29.7238 21.4327L44.9568 17.3469L45 17.3581L45.0432 17.3469L60.2762 21.4327L60.162 9.08136L90 38.92ZM45 50.7783L44.9916 50.7755L25.4792 58.0703L32.4425 65.0336L44.9916 60.5272L44.9993 60.5293L45.0077 60.5272L57.5575 65.0336L64.5208 58.0703L45.0084 50.7755L45 50.7783ZM64.6754 27.4148L45.0334 22.1451L45 22.1535L44.9666 22.1451L25.3246 27.4148L25.3023 19.8965L6.32332 38.9138L11.7448 44.3345L28.6826 34.1511L35.8103 37.7222L44.9728 42.1075L45 42.0935L45.0272 42.1075L54.1897 37.7222L61.3174 34.1511L78.2552 44.3345L83.6767 38.9138L64.6977 19.8965L64.6754 27.4148Z" fill="#323232"/>
</svg>
